<?xml version="1.0" encoding="utf-8"?>
<!-- Generator: Adobe Illustrator 26.0.2, SVG Export Plug-In . SVG Version: 6.00 Build 0)  -->
<svg version="1.1" id="圖層_1" xmlns="http://www.w3.org/2000/svg" xmlns:xlink="http://www.w3.org/1999/xlink" x="0px" y="0px"
	 viewBox="0 0 273 90" style="enable-background:new 0 0 273 90;" xml:space="preserve">
<style type="text/css">
	.st0{fill:none;stroke:#231815;stroke-width:3.8737;stroke-linecap:round;stroke-linejoin:round;stroke-miterlimit:10;}
	.st1{fill:#231815;stroke:#231815;stroke-width:1.2414;stroke-linecap:round;stroke-linejoin:round;stroke-miterlimit:10;}
	.st2{fill:none;stroke:#231815;stroke-width:2.6506;stroke-linecap:round;stroke-linejoin:round;stroke-miterlimit:10;}
	.st3{fill:none;}
	.st4{font-family:'MS-UIGothic';}
	.st5{font-size:36px;}
</style>
<g>
	<path class="st0" d="M53.8,63.9h20.7c3.3-4.1,6.3-9.3,8.7-12.4c4-5,6.4-11.5,6.4-18.7C89.6,17.5,78.6,5,64.9,5S40.2,17.5,40.2,32.9
		c0,7.2,2.4,13.8,6.4,18.8c0.6,0.8,16-17.2,16.7-16.2"/>
	<line class="st0" x1="53.6" y1="72.3" x2="73.6" y2="72.3"/>
	<line class="st0" x1="53.6" y1="80.7" x2="73.6" y2="80.7"/>
	<polygon class="st1" points="64.9,41.7 62.8,35.5 56,33.5 70.8,27.9 	"/>
</g>
<line class="st0" x1="8.5" y1="48.2" x2="8.5" y2="80.7"/>
<g>
	<path class="st0" d="M21.9,48.2v32.5c9,0,16.3-7.3,16.3-16.3S30.9,48.2,21.9,48.2z"/>
</g>
<g>
	<line class="st2" x1="86.8" y1="82.4" x2="98.3" y2="50.6"/>
	<line class="st2" x1="112.7" y1="81.2" x2="98.3" y2="50.6"/>
	<line class="st0" x1="91.9" y1="68.4" x2="106.8" y2="68.6"/>
</g>
<rect x="124.2" y="50" class="st3" width="147.8" height="38.7"/>
<text transform="matrix(1 0 0 1 124.1738 80.9375)" class="st4 st5">點子設計</text>
</svg>
