<?xml version="1.0" encoding="utf-8"?>
<!-- Generator: Adobe Illustrator 26.0.2, SVG Export Plug-In . SVG Version: 6.00 Build 0)  -->
<svg version="1.1" id="圖層_1" xmlns="http://www.w3.org/2000/svg" xmlns:xlink="http://www.w3.org/1999/xlink" x="0px" y="0px"
	 viewBox="0 0 57.9 85.2" style="enable-background:new 0 0 57.9 85.2;" xml:space="preserve">
<style type="text/css">
	.st0{fill:#FFFFFF;}
	.st1{fill:none;stroke:#231815;stroke-width:3.8737;stroke-linecap:round;stroke-linejoin:round;stroke-miterlimit:10;}
	.st2{fill:#231815;stroke:#231815;stroke-width:1.2414;stroke-linecap:round;stroke-linejoin:round;stroke-miterlimit:10;}
</style>
<rect x="13.8" y="60.8" class="st0" width="26.5" height="22.8"/>
<ellipse class="st0" cx="28.6" cy="33.8" rx="25.5" ry="30.1"/>
<g>
	<path class="st1" d="M17.7,63.9h20.7c3.3-4.1,6.3-9.3,8.7-12.4c4-5,6.4-11.5,6.4-18.7C53.5,17.5,42.5,5,28.8,5S4.1,17.5,4.1,32.9
		c0,7.2,2.4,13.8,6.4,18.8c0.6,0.8,16-17.2,16.7-16.2"/>
	<line class="st1" x1="17.5" y1="72.3" x2="37.5" y2="72.3"/>
	<line class="st1" x1="17.5" y1="80.7" x2="37.5" y2="80.7"/>
	<polygon class="st2" points="28.8,41.7 26.7,35.5 19.9,33.5 34.7,27.9 	"/>
</g>
</svg>
