<svg width="273" height="92" viewBox="0 0 273 92" fill="none" xmlns="http://www.w3.org/2000/svg">
<g filter="url(#filter0_d_344_2129)">
<path d="M53.7602 63.94H74.5002C77.8402 59.8 80.8002 54.61 83.2302 51.58C87.2002 46.63 89.6202 40.07 89.6202 32.88C89.6202 17.48 78.5502 5 64.9002 5C51.2502 5 40.1802 17.48 40.1802 32.88C40.1802 40.1 42.6102 46.68 46.6002 51.63C47.2102 52.38 62.6202 34.4 63.3002 35.38" fill="#00A8B8"/>
<path d="M53.7602 63.94H74.5002C77.8402 59.8 80.8002 54.61 83.2302 51.58C87.2002 46.63 89.6202 40.07 89.6202 32.88C89.6202 17.48 78.5502 5 64.9002 5C51.2502 5 40.1802 17.48 40.1802 32.88C40.1802 40.1 42.6102 46.68 46.6002 51.63C47.2102 52.38 62.6202 34.4 63.3002 35.38" stroke="white" stroke-width="3.8737" stroke-miterlimit="10" stroke-linecap="round" stroke-linejoin="round"/>
<path d="M53.6304 72.3401H73.5904" stroke="white" stroke-width="3.8737" stroke-miterlimit="10" stroke-linecap="round" stroke-linejoin="round"/>
<path d="M53.6304 80.73H73.5904" stroke="white" stroke-width="3.8737" stroke-miterlimit="10" stroke-linecap="round" stroke-linejoin="round"/>
<path d="M64.9 41.6901L62.77 35.5501L55.98 33.4901L70.78 27.8601L64.9 41.6901Z" fill="white" stroke="white" stroke-width="1.2414" stroke-miterlimit="10" stroke-linecap="round" stroke-linejoin="round"/>
<path d="M8.54004 48.2V80.73" stroke="white" stroke-width="3.8737" stroke-miterlimit="10" stroke-linecap="round" stroke-linejoin="round"/>
<path d="M21.9199 48.2V80.73C30.8999 80.73 38.1899 73.4499 38.1899 64.4599C38.1899 55.4699 30.8999 48.2 21.9199 48.2Z" stroke="white" stroke-width="3.8737" stroke-miterlimit="10" stroke-linecap="round" stroke-linejoin="round"/>
<path d="M86.8301 82.3801L98.3001 50.6001" stroke="white" stroke-width="2.6506" stroke-miterlimit="10" stroke-linecap="round" stroke-linejoin="round"/>
<path d="M112.66 81.1801L98.3003 50.6001" stroke="white" stroke-width="2.6506" stroke-miterlimit="10" stroke-linecap="round" stroke-linejoin="round"/>
<path d="M91.8701 68.4102L106.75 68.6102" stroke="white" stroke-width="3.8737" stroke-miterlimit="10" stroke-linecap="round" stroke-linejoin="round"/>
<path d="M143.182 64.8335V80.8175H145.666V67.3175H154.738V80.6735H157.33V64.8335H143.182ZM148.402 47.7695V65.6255H151.066V47.7695H148.402ZM149.95 55.5815V58.1015H158.77V55.5815H149.95ZM144.478 76.6415V79.1255H155.998V76.6415H144.478ZM129.07 51.0095H138.97V59.7215H129.07V51.0095ZM126.946 49.0295V61.7015H141.166V49.0295H126.946ZM129.574 52.7735C130.186 54.5375 130.654 56.8055 130.726 58.3175L132.13 57.8855C132.022 56.4455 131.554 54.1775 130.942 52.4135L129.574 52.7735ZM130.798 73.4015C131.302 75.3815 131.662 77.9735 131.662 79.6655L133.534 79.4135C133.498 77.7215 133.138 75.1295 132.562 73.1495L130.798 73.4015ZM134.254 73.1855C135.046 75.0215 135.802 77.4335 136.018 79.0175L137.854 78.6215C137.602 77.0375 136.81 74.6255 135.982 72.8255L134.254 73.1855ZM137.674 72.6815C138.898 74.3735 140.158 76.6775 140.698 78.2255L142.498 77.3975C141.958 75.9215 140.662 73.6895 139.366 72.0335L137.674 72.6815ZM127.738 73.2575C127.414 75.7415 126.73 78.3695 125.326 79.8455L127.162 80.8535C128.71 79.2335 129.286 76.4255 129.646 73.7615L127.738 73.2575ZM136.954 52.3055C136.63 53.9615 135.91 56.5175 135.37 58.0655L136.558 58.5335C137.17 57.0935 137.89 54.7535 138.538 52.9175L136.954 52.3055ZM125.902 69.4415L126.046 71.8175C130.186 71.5655 136.162 71.2055 141.922 70.7735L141.994 68.6135C136.018 68.9735 129.898 69.2615 125.902 69.4415ZM126.694 64.1495V66.3455H141.418V64.1495H126.694ZM132.994 49.9655V60.7655H132.706V70.0535H135.118V60.7655H134.83V49.9655H132.994ZM161.866 63.7895V66.4895H194.554V63.7895H161.866ZM176.842 57.9935V77.3255C176.842 77.9735 176.59 78.1535 175.834 78.1895C175.042 78.2255 172.378 78.2255 169.462 78.1175C169.93 78.9095 170.434 80.1335 170.65 80.9255C174.106 80.9255 176.446 80.8535 177.778 80.4215C179.146 79.9895 179.65 79.1615 179.65 77.3615V57.9935H176.842ZM165.574 50.2175V52.8815H189.082V50.2175H165.574ZM188.146 50.2175V50.8295C185.878 53.3855 181.09 56.8055 177.166 58.6775C177.706 59.1455 178.534 60.0095 178.93 60.6215C183.142 58.4615 188.254 54.8975 191.53 51.5855L189.478 50.0735L188.866 50.2175H188.146ZM214.03 48.8495V53.2055C214.03 55.7255 213.49 58.7135 210.034 60.9455C210.574 61.3055 211.618 62.2415 211.978 62.7455C215.83 60.1895 216.622 56.3735 216.622 53.2415V48.8495H214.03ZM222.814 48.8495V57.7415C222.814 60.2975 223.462 61.0175 225.658 61.0175C226.126 61.0175 227.71 61.0175 228.178 61.0175C230.122 61.0175 230.77 59.9015 230.986 55.6895C230.302 55.5095 229.222 55.1135 228.718 54.7175C228.646 58.1735 228.502 58.6415 227.89 58.6415C227.53 58.6415 226.342 58.6415 226.054 58.6415C225.478 58.6415 225.37 58.4975 225.37 57.7055V48.8495H222.814ZM215.974 65.8415L213.562 66.5975C216.442 73.6535 221.806 78.6215 229.294 80.8175C229.654 80.1335 230.446 79.0535 231.058 78.4775C223.822 76.6415 218.458 72.0335 215.974 65.8415ZM226.054 63.3215V63.7535C223.894 71.7455 217.378 76.6055 210.106 78.4415C210.61 79.0175 211.294 80.1695 211.582 80.8175C219.466 78.5135 226.234 73.3295 228.79 63.8975L227.062 63.2135L226.594 63.3215H226.054ZM211.69 63.3215V65.7695H227.098V63.3215H211.69ZM215.11 48.8495V51.2615H224.11V48.8495H215.11ZM199.234 58.6055V60.7655H209.962V58.6055H199.234ZM199.414 48.9935V51.1535H209.89V48.9935H199.414ZM199.234 63.4295V65.5895H209.962V63.4295H199.234ZM197.542 53.7095V55.9415H211.222V53.7095H197.542ZM200.53 68.2895V70.5215H207.586V76.5335H200.53V78.8015H209.962V68.2895H200.53ZM199.198 68.2895V80.4575H201.538V68.2895H199.198ZM247.798 60.0455V62.7095H267.13V60.0455H247.798ZM256.258 47.8055V80.8175H258.994V47.8055H256.258ZM235.234 58.6055V60.7655H246.466V58.6055H235.234ZM235.45 48.9935V51.1535H246.502V48.9935H235.45ZM235.234 63.4295V65.5895H246.466V63.4295H235.234ZM233.542 53.7095V55.9415H247.87V53.7095H233.542ZM236.494 68.2895V70.5215H243.946V76.5335H236.494V78.8015H246.358V68.2895H236.494ZM235.198 68.2895V80.4575H237.61V68.2895H235.198Z" fill="white"/>
</g>
<defs>
<filter id="filter0_d_344_2129" x="-4" y="0" width="281" height="98" filterUnits="userSpaceOnUse" color-interpolation-filters="sRGB">
<feFlood flood-opacity="0" result="BackgroundImageFix"/>
<feColorMatrix in="SourceAlpha" type="matrix" values="0 0 0 0 0 0 0 0 0 0 0 0 0 0 0 0 0 0 127 0" result="hardAlpha"/>
<feOffset dy="4"/>
<feGaussianBlur stdDeviation="2"/>
<feComposite in2="hardAlpha" operator="out"/>
<feColorMatrix type="matrix" values="0 0 0 0 0 0 0 0 0 0 0 0 0 0 0 0 0 0 0.25 0"/>
<feBlend mode="normal" in2="BackgroundImageFix" result="effect1_dropShadow_344_2129"/>
<feBlend mode="normal" in="SourceGraphic" in2="effect1_dropShadow_344_2129" result="shape"/>
</filter>
</defs>
</svg>
